name ./resultDataOpenSim/trcMotMarkerGrf/sub06/grf-02-03.mot
datacolumns 19
datarows 22
range 0.51600000 0.60000000
endheader

                time	     ground_force_vx	     ground_force_vy	     ground_force_vz	     ground_force_px	     ground_force_py	     ground_force_pz	   l_ground_force_vx	   l_ground_force_vy	   l_ground_force_vz	   l_ground_force_px	   l_ground_force_py	   l_ground_force_pz	     ground_torque_x	     ground_torque_y	     ground_torque_z	   l_ground_torque_x	   l_ground_torque_y	   l_ground_torque_z	
          0.51600000	         83.20511485	        579.48180748	        -36.96971581	         -0.80121688	          0.00000000	          0.09862423	          0.00000000	          0.00000000	          0.00000000	          0.00000000	          0.00000000	          0.00000000	          0.00000000	          1.10018911	          0.00000000	          0.00000000	          0.00000000	          0.00000000	
          0.52000000	         87.50928767	        599.66554857	        -37.52612165	         -0.79912762	          0.00000000	          0.09864612	          0.00000000	          0.00000000	          0.00000000	          0.00000000	          0.00000000	          0.00000000	          0.00000000	          1.02082661	          0.00000000	          0.00000000	          0.00000000	          0.00000000	
          0.52400000	         92.20318047	        619.68210815	        -37.26398379	         -0.79722963	          0.00000000	          0.09857836	          0.00000000	          0.00000000	          0.00000000	          0.00000000	          0.00000000	          0.00000000	          0.00000000	          1.00198613	          0.00000000	          0.00000000	          0.00000000	          0.00000000	
          0.52800000	         97.17516144	        639.46785791	        -36.32906602	         -0.79552803	          0.00000000	          0.09842296	          0.00000000	          0.00000000	          0.00000000	          0.00000000	          0.00000000	          0.00000000	          0.00000000	          1.04386792	          0.00000000	          0.00000000	          0.00000000	          0.00000000	
          0.53200000	        102.35928302	        658.94338881	        -34.94580618	         -0.79402602	          0.00000000	          0.09818644	          0.00000000	          0.00000000	          0.00000000	          0.00000000	          0.00000000	          0.00000000	          0.00000000	          1.13691483	          0.00000000	          0.00000000	          0.00000000	          0.00000000	
          0.53600000	        107.74691578	        677.97925087	        -33.37269222	         -0.79271529	          0.00000000	          0.09788408	          0.00000000	          0.00000000	          0.00000000	          0.00000000	          0.00000000	          0.00000000	          0.00000000	          1.26420291	          0.00000000	          0.00000000	          0.00000000	          0.00000000	
          0.54000000	        113.38108725	        696.39107487	        -31.85570453	         -0.79157115	          0.00000000	          0.09754201	          0.00000000	          0.00000000	          0.00000000	          0.00000000	          0.00000000	          0.00000000	          0.00000000	          1.40535067	          0.00000000	          0.00000000	          0.00000000	          0.00000000	
          0.54400000	        119.33187389	        713.96817666	        -30.58835805	         -0.79056551	          0.00000000	          0.09718747	          0.00000000	          0.00000000	          0.00000000	          0.00000000	          0.00000000	          0.00000000	          0.00000000	          1.54094058	          0.00000000	          0.00000000	          0.00000000	          0.00000000	
          0.54800000	        125.66006780	        730.49302833	        -29.68434478	         -0.78967876	          0.00000000	          0.09683921	          0.00000000	          0.00000000	          0.00000000	          0.00000000	          0.00000000	          0.00000000	          0.00000000	          1.65635778	          0.00000000	          0.00000000	          0.00000000	          0.00000000	
          0.55200000	        132.38606277	        745.74094560	        -29.16612938	         -0.78889694	          0.00000000	          0.09650810	          0.00000000	          0.00000000	          0.00000000	          0.00000000	          0.00000000	          0.00000000	          0.00000000	          1.74413988	          0.00000000	          0.00000000	          0.00000000	          0.00000000	
          0.55600000	        139.47701596	        759.48859688	        -28.97234609	         -0.78820223	          0.00000000	          0.09620255	          0.00000000	          0.00000000	          0.00000000	          0.00000000	          0.00000000	          0.00000000	          0.00000000	          1.80437522	          0.00000000	          0.00000000	          0.00000000	          0.00000000	
          0.56000000	        146.85233211	        771.53810477	        -28.98224989	         -0.78756940	          0.00000000	          0.09593090	          0.00000000	          0.00000000	          0.00000000	          0.00000000	          0.00000000	          0.00000000	          0.00000000	          1.84323985	          0.00000000	          0.00000000	          0.00000000	          0.00000000	
          0.56400000	        154.39913478	        781.73479474	        -29.04954904	         -0.78697367	          0.00000000	          0.09569974	          0.00000000	          0.00000000	          0.00000000	          0.00000000	          0.00000000	          0.00000000	          0.00000000	          1.87021692	          0.00000000	          0.00000000	          0.00000000	          0.00000000	
          0.56800000	        161.98967065	        789.96650798	        -29.03793294	         -0.78640127	          0.00000000	          0.09551138	          0.00000000	          0.00000000	          0.00000000	          0.00000000	          0.00000000	          0.00000000	          0.00000000	          1.89476517	          0.00000000	          0.00000000	          0.00000000	          0.00000000	
          0.57200000	        169.49774315	        796.14992010	        -28.85254937	         -0.78584903	          0.00000000	          0.09536329	          0.00000000	          0.00000000	          0.00000000	          0.00000000	          0.00000000	          0.00000000	          0.00000000	          1.92321345	          0.00000000	          0.00000000	          0.00000000	          0.00000000	
          0.57600000	        176.81441716	        800.21068973	        -28.46236492	         -0.78531433	          0.00000000	          0.09525096	          0.00000000	          0.00000000	          0.00000000	          0.00000000	          0.00000000	          0.00000000	          0.00000000	          1.95654480	          0.00000000	          0.00000000	          0.00000000	          0.00000000	
          0.58000000	        183.85904122	        802.06901643	        -27.90828218	         -0.78478880	          0.00000000	          0.09517123	          0.00000000	          0.00000000	          0.00000000	          0.00000000	          0.00000000	          0.00000000	          0.00000000	          1.98954353	          0.00000000	          0.00000000	          0.00000000	          0.00000000	
          0.58400000	        190.58000249	        801.64122013	        -27.29192088	         -0.78426031	          0.00000000	          0.09512455	          0.00000000	          0.00000000	          0.00000000	          0.00000000	          0.00000000	          0.00000000	          0.00000000	          2.01149625	          0.00000000	          0.00000000	          0.00000000	          0.00000000	
          0.58800000	        196.94883199	        798.84962189	        -26.74628242	         -0.78371620	          0.00000000	          0.09511373	          0.00000000	          0.00000000	          0.00000000	          0.00000000	          0.00000000	          0.00000000	          0.00000000	          2.00828155	          0.00000000	          0.00000000	          0.00000000	          0.00000000	
          0.59200000	        202.95644242	        793.63382960	        -26.39773833	         -0.78314374	          0.00000000	          0.09514279	          0.00000000	          0.00000000	          0.00000000	          0.00000000	          0.00000000	          0.00000000	          0.00000000	          1.96537230	          0.00000000	          0.00000000	          0.00000000	          0.00000000	
          0.59600000	        208.60961288	        785.96627052	        -26.33062516	         -0.78253908	          0.00000000	          0.09521441	          0.00000000	          0.00000000	          0.00000000	          0.00000000	          0.00000000	          0.00000000	          0.00000000	          1.87110462	          0.00000000	          0.00000000	          0.00000000	          0.00000000	
          0.60000000	        213.91762187	        775.86316329	        -26.56240971	         -0.78190230	          0.00000000	          0.09532767	          0.00000000	          0.00000000	          0.00000000	          0.00000000	          0.00000000	          0.00000000	          0.00000000	          1.71950183	          0.00000000	          0.00000000	          0.00000000	          0.00000000	
